<svg width="731" height="304" version="1.1" xmlns="http://www.w3.org/2000/svg">
 <path d="m569 142a3 3 0 1 1 0-2e-5z" fill="#7f7f7f" paint-order="stroke fill markers"/>
 <defs>
  <linearGradient id="JABgwvLzSkUP" x2="32px" gradientUnits="userSpaceOnUse">
   <stop stop-color="#7f7f7f" offset="0"/>
   <stop stop-color="#7f7f7f" offset="1"/>
  </linearGradient>
 </defs>
 <g fill="none" stroke="#7f7f7f" stroke-linecap="round" stroke-miterlimit="10" stroke-width="3">
  <path d="m358 102h64v48h-64z" paint-order="fill stroke markers"/>
  <path d="m342 110h32" paint-order="fill stroke markers"/>
  <path d="m342 142h32" paint-order="fill stroke markers"/>
  <path d="m438 110h-24" paint-order="fill stroke markers"/>
  <path d="m438 142h-24" paint-order="fill stroke markers"/>
  <path d="m374 110v8" paint-order="fill stroke markers"/>
  <path d="m374 134v8" paint-order="fill stroke markers"/>
 </g>
 <path d="m382 118h-16l8 16z" fill="#7f7f7f" paint-order="stroke fill markers"/>
 <g fill="none" stroke="#7f7f7f" stroke-linecap="round" stroke-miterlimit="10" stroke-width="3">
  <path d="m382 134h-16" paint-order="fill stroke markers"/>
  <path d="m414 110-13 10" paint-order="fill stroke markers"/>
  <path d="m414 142-13-10" paint-order="fill stroke markers"/>
 </g>
 <path d="m414 142-4-8-5 6z" fill="#7f7f7f" paint-order="stroke fill markers"/>
 <path d="m398 126v0" fill="none" stroke="#7f7f7f" stroke-linecap="round" stroke-miterlimit="10" stroke-width="3" paint-order="fill stroke markers"/>
 <path d="m398 110h3v32h-3z" fill="#7f7f7f" paint-order="stroke fill markers"/>
 <path d="m396 121-5-2v4z" fill="#7f7f7f" paint-order="stroke fill markers"/>
 <path d="m386 121h5" fill="none" stroke="#7f7f7f" stroke-linecap="round" stroke-miterlimit="10" paint-order="fill stroke markers"/>
 <path d="m396 131-5-2v4z" fill="#7f7f7f" paint-order="stroke fill markers"/>
 <g fill="none" stroke="#7f7f7f" stroke-linecap="round" stroke-miterlimit="10">
  <path d="m386 131h5" paint-order="fill stroke markers"/>
  <g stroke-width="3">
   <path d="m150 110h32" paint-order="fill stroke markers"/>
   <path d="m214 110h32" paint-order="fill stroke markers"/>
   <path d="m182 110 32-16" paint-order="fill stroke markers"/>
   <path d="m150 142h96" paint-order="fill stroke markers"/>
  </g>
 </g>
 <text x="198" y="136" dominant-baseline="alphabetic" fill="#7f7f7f" font-family="sans-serif" font-size="12px" text-decoration="normal"/>
 <path d="m246 110h32" fill="none" stroke="#7f7f7f" stroke-linecap="round" stroke-miterlimit="10" stroke-width="3" paint-order="fill stroke markers"/>
 <path d="m310 110h32" fill="none" stroke="#7f7f7f" stroke-linecap="round" stroke-miterlimit="10" stroke-width="3" paint-order="fill stroke markers"/>
 <g transform="translate(278,110)">
  <path d="m0 0 2 6 4-12 4 12 4-12 4 12 4-12 4 12 4-12 2 6" fill="none" stroke="url(#JABgwvLzSkUP)" stroke-linecap="round" stroke-miterlimit="10" stroke-width="3" paint-order="fill stroke markers"/>
 </g>
 <text x="288" y="100" dominant-baseline="alphabetic" fill="#7f7f7f" font-family="sans-serif" font-size="12px" text-decoration="normal">2k</text>
 <path d="m438 110h24" fill="none" stroke="#7f7f7f" stroke-linecap="round" stroke-miterlimit="10" stroke-width="3" paint-order="fill stroke markers"/>
 <path d="m494 110h24" fill="none" stroke="#7f7f7f" stroke-linecap="round" stroke-miterlimit="10" stroke-width="3" paint-order="fill stroke markers"/>
 <g transform="translate(462,110)">
  <path d="m0 0 2 6 4-12 4 12 4-12 4 12 4-12 4 12 4-12 2 6" fill="none" stroke="url(#JABgwvLzSkUP)" stroke-linecap="round" stroke-miterlimit="10" stroke-width="3" paint-order="fill stroke markers"/>
 </g>
 <text x="468" y="100" dominant-baseline="alphabetic" fill="#7f7f7f" font-family="sans-serif" font-size="12px" text-decoration="normal">470</text>
 <path d="m438 142v24" fill="none" stroke="#7f7f7f" stroke-linecap="round" stroke-miterlimit="10" stroke-width="3" paint-order="fill stroke markers"/>
 <path d="m438 198v24" fill="none" stroke="#7f7f7f" stroke-linecap="round" stroke-miterlimit="10" stroke-width="3" paint-order="fill stroke markers"/>
 <g transform="rotate(90,136,302)">
  <path d="m0 0 2 6 4-12 4 12 4-12 4 12 4-12 4 12 4-12 2 6" fill="none" stroke="url(#JABgwvLzSkUP)" stroke-linecap="round" stroke-miterlimit="10" stroke-width="3" paint-order="fill stroke markers"/>
 </g>
 <text x="448" y="188" dominant-baseline="alphabetic" fill="#7f7f7f" font-family="sans-serif" font-size="12px" text-decoration="normal">10k</text>
 <path d="m438 222h112" fill="none" stroke="#7f7f7f" stroke-linecap="round" stroke-miterlimit="10" stroke-width="3" paint-order="fill stroke markers"/>
 <text x="494" y="216" dominant-baseline="alphabetic" fill="#7f7f7f" font-family="sans-serif" font-size="12px" text-decoration="normal"/>
 <path d="m438 142h128" fill="none" stroke="#7f7f7f" stroke-linecap="round" stroke-miterlimit="10" stroke-width="3" paint-order="fill stroke markers"/>
 <text x="502" y="136" dominant-baseline="alphabetic" fill="#7f7f7f" font-family="sans-serif" font-size="12px" text-decoration="normal"/>
 <path d="m518 110h47" fill="none" stroke="#7f7f7f" stroke-linecap="round" stroke-miterlimit="10" stroke-width="3" paint-order="fill stroke markers"/>
 <g transform="translate(-298,-226)">
  <text x="867" y="336" dominant-baseline="central" fill="#7f7f7f" font-family="sans-serif" font-size="12px" text-decoration="normal">+3.3V</text>
 </g>
 <g fill="none" stroke="#7f7f7f" stroke-linecap="round" stroke-miterlimit="10" stroke-width="3">
  <path d="m342 142h-36" paint-order="fill stroke markers"/>
  <path d="m282 142h-36" paint-order="fill stroke markers"/>
  <path d="m305.76 142a11.76 11.76 0 1 1-1e-5 -0.0118" paint-order="fill stroke markers"/>
 </g>
 <path d="m302 142a8 8 0 1 1 0-4e-5z" fill="#7f7f7f" paint-order="stroke fill markers"/>
 <g transform="translate(-298,-226)">
  <text x="663" y="315" dominant-baseline="alphabetic" fill="#7f7f7f" font-family="sans-serif" font-size="16px" text-decoration="normal">PC817</text>
 </g>
 <g transform="translate(-298,-226)">
  <text x="880" y="369" dominant-baseline="alphabetic" fill="#7f7f7f" font-family="sans-serif" font-size="12px" text-decoration="normal">sense pin</text>
 </g>
 <g transform="translate(-298,-226)">
  <text x="864" y="448" dominant-baseline="alphabetic" fill="#7f7f7f" font-family="sans-serif" font-size="12px" text-decoration="normal">gnd</text>
 </g>
 <g fill="none" stroke="#7f7f7f" stroke-linecap="round" stroke-miterlimit="10">
  <g stroke-width="3">
   <path d="m550 222v32" paint-order="fill stroke markers"/>
   <path d="m560 254h-20" paint-order="fill stroke markers"/>
   <path d="m556 259h-12" paint-order="fill stroke markers"/>
   <path d="m552 264h-4" paint-order="fill stroke markers"/>
  </g>
  <rect x="246" y="50" width="265" height="203" stroke-dasharray="16, 6"/>
 </g>
 <g transform="translate(-298,-226)">
  <text x="907" y="338" dominant-baseline="alphabetic" fill="#7f7f7f" font-family="sans-serif" font-size="12px" text-decoration="normal">power pin</text>
 </g>
 <g fill="none" stroke="#7f7f7f" stroke-linecap="round" stroke-miterlimit="10" stroke-width="3">
  <path d="m70 142v-36" paint-order="fill stroke markers"/>
  <path d="m70 98v-36" paint-order="fill stroke markers"/>
  <path d="m60 106h20" paint-order="fill stroke markers"/>
  <path d="m54 98h32" paint-order="fill stroke markers"/>
  <path d="m70 62h80" paint-order="fill stroke markers"/>
 </g>
 <text x="110" y="56" dominant-baseline="alphabetic" fill="#7f7f7f" font-family="sans-serif" font-size="12px" text-decoration="normal"/>
 <path d="m150 62v48" fill="none" stroke="#7f7f7f" stroke-linecap="round" stroke-miterlimit="10" stroke-width="3" paint-order="fill stroke markers"/>
 <text x="156" y="92" dominant-baseline="alphabetic" fill="#7f7f7f" font-family="sans-serif" font-size="12px" text-decoration="normal"/>
 <path d="m70 142h80" fill="none" stroke="#7f7f7f" stroke-linecap="round" stroke-miterlimit="10" stroke-width="3" paint-order="fill stroke markers"/>
 <text x="110" y="136" dominant-baseline="alphabetic" fill="#7f7f7f" font-family="sans-serif" font-size="12px" text-decoration="normal"/>
 <g transform="translate(-298,-226)">
  <text x="393" y="331" dominant-baseline="alphabetic" fill="#7f7f7f" font-family="sans-serif" font-size="12px" text-decoration="normal">12V</text>
 </g>
 <path d="m441 142a3 3 0 1 1 0-2e-5z" fill="#7f7f7f" paint-order="stroke fill markers"/>
</svg>
