<svg width="533" height="421" version="1.1" xmlns="http://www.w3.org/2000/svg">
 <defs>
  <linearGradient id="ykbiLcIRXtPk" x2="32px" gradientUnits="userSpaceOnUse">
   <stop stop-color="#7f7f7f" offset="0"/>
   <stop stop-color="#7f7f7f" offset="1"/>
  </linearGradient>
 </defs>
 <g transform="translate(207,-71)">
  <text x="-137" y="267" dominant-baseline="alphabetic" fill="#7f7f7f" font-family="sans-serif" font-size="14px" text-decoration="normal">output pin</text>
 </g>
 <g fill="none" stroke="#7f7f7f" stroke-linecap="round" stroke-miterlimit="10" stroke-width="3">
  <path d="m383 265v96" paint-order="fill stroke markers"/>
  <path d="m393 361h-20" paint-order="fill stroke markers"/>
  <path d="m389 366h-12" paint-order="fill stroke markers"/>
  <path d="m385 371h-4" paint-order="fill stroke markers"/>
  <path d="m287 217h16" paint-order="fill stroke markers"/>
  <path d="m335 217h16" paint-order="fill stroke markers"/>
 </g>
 <g transform="translate(303,217)">
  <path d="m0 0 2 6 4-12 4 12 4-12 4 12 4-12 4 12 4-12 2 6" fill="none" stroke="url(#ykbiLcIRXtPk)" stroke-linecap="round" stroke-miterlimit="10" stroke-width="3" paint-order="fill stroke markers"/>
 </g>
 <text x="313" y="207" dominant-baseline="alphabetic" fill="#7f7f7f" font-family="sans-serif" font-size="12px" text-decoration="normal">1k</text>
 <g fill="none" stroke="#7f7f7f" stroke-linecap="round" stroke-miterlimit="10" stroke-width="3">
  <path d="m127 217h16" paint-order="fill stroke markers"/>
  <path d="m175 217h16" paint-order="fill stroke markers"/>
  <path d="m143 217 32-16" paint-order="fill stroke markers"/>
  <path d="m127 217h-31" paint-order="fill stroke markers"/>
 </g>
 <g transform="translate(207,-71)">
  <text x="-146" y="288" dominant-baseline="central" fill="#7f7f7f" font-family="sans-serif" font-size="12px" text-decoration="normal">+3.3V</text>
 </g>
 <g transform="translate(207,-71)" fill="#7f7f7f">
  <text x="-121" y="121" dominant-baseline="alphabetic" fill="#7f7f7f" font-family="sans-serif" font-size="14px" text-decoration="normal">pwm pin</text>
 </g>
 <g fill="none" stroke="#7f7f7f" stroke-linecap="round" stroke-miterlimit="10" stroke-width="3">
  <path d="m383 233h-22" paint-order="fill stroke markers"/>
  <path d="m383 201h-22" paint-order="fill stroke markers"/>
  <path d="m361 233v-5" paint-order="fill stroke markers"/>
  <path d="m361 222v-5" paint-order="fill stroke markers"/>
  <path d="m361 217v-5" paint-order="fill stroke markers"/>
  <path d="m361 206v-5" paint-order="fill stroke markers"/>
  <path d="m361 233v5" paint-order="fill stroke markers"/>
  <path d="m361 201v-5" paint-order="fill stroke markers"/>
  <path d="m383 233v-16" paint-order="fill stroke markers"/>
  <path d="m383 217h-22" paint-order="fill stroke markers"/>
 </g>
 <path d="m361 217 12 5v-10z" fill="#7f7f7f" paint-order="stroke fill markers"/>
 <g fill="none" stroke="#7f7f7f" stroke-linecap="round" stroke-miterlimit="10" stroke-width="3">
  <path d="m351 217h4" paint-order="fill stroke markers"/>
  <path d="m355 209v16" paint-order="fill stroke markers"/>
  <path d="m287 137v-48" paint-order="fill stroke markers"/>
 </g>
 <text x="293" y="119" dominant-baseline="alphabetic" fill="#7f7f7f" font-family="sans-serif" font-size="12px" text-decoration="normal"/>
 <path d="m383 89v48" fill="none" stroke="#7f7f7f" stroke-linecap="round" stroke-miterlimit="10" stroke-width="3" paint-order="fill stroke markers"/>
 <text x="389" y="119" dominant-baseline="alphabetic" fill="#7f7f7f" font-family="sans-serif" font-size="12px" text-decoration="normal"/>
 <path d="m255 217v48" fill="none" stroke="#7f7f7f" stroke-linecap="round" stroke-miterlimit="10" stroke-width="3" paint-order="fill stroke markers"/>
 <text x="261" y="247" dominant-baseline="alphabetic" fill="#7f7f7f" font-family="sans-serif" font-size="12px" text-decoration="normal"/>
 <path d="m383 233v32" fill="none" stroke="#7f7f7f" stroke-linecap="round" stroke-miterlimit="10" stroke-width="3" paint-order="fill stroke markers"/>
 <text x="389" y="255" dominant-baseline="alphabetic" fill="#7f7f7f" font-family="sans-serif" font-size="12px" text-decoration="normal"/>
 <path d="m255 265h48" fill="none" stroke="#7f7f7f" stroke-linecap="round" stroke-miterlimit="10" stroke-width="3" paint-order="fill stroke markers"/>
 <path d="m335 265h48" fill="none" stroke="#7f7f7f" stroke-linecap="round" stroke-miterlimit="10" stroke-width="3" paint-order="fill stroke markers"/>
 <g transform="translate(303,265)">
  <path d="m0 0 2 6 4-12 4 12 4-12 4 12 4-12 4 12 4-12 2 6" fill="none" stroke="url(#ykbiLcIRXtPk)" stroke-linecap="round" stroke-miterlimit="10" stroke-width="3" paint-order="fill stroke markers"/>
 </g>
 <text x="310" y="255" dominant-baseline="alphabetic" fill="#7f7f7f" font-family="sans-serif" font-size="12px" text-decoration="normal">10k</text>
 <g transform="translate(207,-71)">
  <text x="200" y="244" dominant-baseline="alphabetic" fill="#7f7f7f" font-family="sans-serif" font-size="14px" text-decoration="normal">ir led</text>
 </g>
 <g fill="none" stroke="#7f7f7f" stroke-linecap="round" stroke-miterlimit="10" stroke-width="3">
  <path d="m383 137v20" paint-order="fill stroke markers"/>
  <path d="m383 181v20" paint-order="fill stroke markers"/>
  <path d="m394.76 169a11.76 11.76 0 1 1-1e-5 -0.0118" paint-order="fill stroke markers"/>
 </g>
 <path d="m391 169a8 8 0 1 1 0-4e-5z" fill="#7f7f7f" paint-order="stroke fill markers"/>
 <g fill="none" stroke="#7f7f7f" stroke-linecap="round" stroke-miterlimit="10" stroke-width="3">
  <path d="m287 89h-159" paint-order="fill stroke markers"/>
  <path d="m127.66 89a16.66 16.66 0 1 1-1e-5 -0.0167" paint-order="fill stroke markers"/>
  <path d="m103 81v8" paint-order="fill stroke markers"/>
  <path d="m103 81h4" paint-order="fill stroke markers"/>
  <path d="m107 81v16" paint-order="fill stroke markers"/>
  <path d="m119 97h-12" paint-order="fill stroke markers"/>
  <path d="m119 89v8" paint-order="fill stroke markers"/>
 </g>
 <text x="94" y="70" dominant-baseline="alphabetic" fill="#7f7f7f" font-family="sans-serif" font-size="12px" text-decoration="normal">38kHz</text>
 <path d="m287 137h32" fill="none" stroke="#7f7f7f" stroke-linecap="round" stroke-miterlimit="10" stroke-width="3" paint-order="fill stroke markers"/>
 <path d="m351 137h32" fill="none" stroke="#7f7f7f" stroke-linecap="round" stroke-miterlimit="10" stroke-width="3" paint-order="fill stroke markers"/>
 <g transform="translate(319,137)">
  <path d="m0 0 2 6 4-12 4 12 4-12 4 12 4-12 4 12 4-12 2 6" fill="none" stroke="url(#ykbiLcIRXtPk)" stroke-linecap="round" stroke-miterlimit="10" stroke-width="3" paint-order="fill stroke markers"/>
 </g>
 <text x="325" y="127" dominant-baseline="alphabetic" fill="#7f7f7f" font-family="sans-serif" font-size="12px" text-decoration="normal">220</text>
 <path d="m287 89h32" fill="none" stroke="#7f7f7f" stroke-linecap="round" stroke-miterlimit="10" stroke-width="3" paint-order="fill stroke markers"/>
 <path d="m351 89h32" fill="none" stroke="#7f7f7f" stroke-linecap="round" stroke-miterlimit="10" stroke-width="3" paint-order="fill stroke markers"/>
 <g transform="translate(319,89)">
  <path d="m0 0 2 6 4-12 4 12 4-12 4 12 4-12 4 12 4-12 2 6" fill="none" stroke="url(#ykbiLcIRXtPk)" stroke-linecap="round" stroke-miterlimit="10" stroke-width="3" paint-order="fill stroke markers"/>
 </g>
 <text x="325" y="79" dominant-baseline="alphabetic" fill="#7f7f7f" font-family="sans-serif" font-size="12px" text-decoration="normal">220</text>
 <g transform="translate(207,-71)">
  <text x="188" y="292" dominant-baseline="alphabetic" fill="#7f7f7f" font-family="sans-serif" font-size="14px" text-decoration="normal">2N7000</text>
 </g>
 <g transform="translate(207,-71)">
  <text x="203" y="439" dominant-baseline="alphabetic" fill="#7f7f7f" font-family="sans-serif" font-size="14px" text-decoration="normal">gnd</text>
 </g>
 <rect x="193" y="52" width="270" height="248" fill="none" stroke="#7f7f7f" stroke-dasharray="16, 6" stroke-linecap="round" stroke-miterlimit="10"/>
 <path d="m191 217h64" fill="none" stroke="#7f7f7f" stroke-linecap="round" stroke-miterlimit="10" stroke-width="3" paint-order="fill stroke markers"/>
 <text x="223" y="211" dominant-baseline="alphabetic" fill="#7f7f7f" font-family="sans-serif" font-size="12px" text-decoration="normal"/>
 <path d="m255 217h32" fill="none" stroke="#7f7f7f" stroke-linecap="round" stroke-miterlimit="10" stroke-width="3" paint-order="fill stroke markers"/>
 <g fill="#7f7f7f">
  <text x="271" y="211" dominant-baseline="alphabetic" font-family="sans-serif" font-size="12px" text-decoration="normal"/>
  <path d="m258 217a3 3 0 1 1 0-2e-5z" paint-order="stroke fill markers"/>
  <path d="m290 89a3 3 0 1 1 0-2e-5z" paint-order="stroke fill markers"/>
  <path d="m386 137a3 3 0 1 1 0-2e-5z" paint-order="stroke fill markers"/>
  <path d="m386 265a3 3 0 1 1 0-2e-5z" paint-order="stroke fill markers"/>
 </g>
</svg>
