<svg version="1.1" xmlns="http://www.w3.org/2000/svg" xmlns:xlink="http://www.w3.org/1999/xlink" width="1051" height="572"><defs><linearGradient id="urtiKgeJRSfv" x1="0px" x2="32px" y1="0px" y2="0px" gradientUnits="userSpaceOnUse"><stop offset="0" stop-color="#807f7f"/><stop offset="1" stop-color="#807f7f"/></linearGradient><linearGradient id="aTIJXvkZsTNE" x1="0px" x2="32px" y1="0px" y2="0px" gradientUnits="userSpaceOnUse"><stop offset="0" stop-color="#807f7f"/><stop offset="1" stop-color="#807f7f"/></linearGradient><linearGradient id="GkuRSGuBTmyr" x1="0px" x2="32px" y1="0px" y2="0px" gradientUnits="userSpaceOnUse"><stop offset="0" stop-color="#807f7f"/><stop offset="1" stop-color="#807f7f"/></linearGradient></defs><g><rect fill="#000000" stroke="none" x="0" y="0" width="1051" height="572"/><g transform="scale(1,1) translate(-375,34)"><path fill="none" stroke="#807f7f" paint-order="fill stroke markers" d=" M 912 368 L 912 448" stroke-linecap="round" stroke-miterlimit="10" stroke-width="3" stroke-dasharray=""/><path fill="none" stroke="#807f7f" paint-order="fill stroke markers" d=" M 922 448 L 902 448" stroke-linecap="round" stroke-miterlimit="10" stroke-width="3" stroke-dasharray=""/><path fill="none" stroke="#807f7f" paint-order="fill stroke markers" d=" M 918 453 L 906 453" stroke-linecap="round" stroke-miterlimit="10" stroke-width="3" stroke-dasharray=""/><path fill="none" stroke="#807f7f" paint-order="fill stroke markers" d=" M 914 458 L 910 458" stroke-linecap="round" stroke-miterlimit="10" stroke-width="3" stroke-dasharray=""/><path fill="none" stroke="#01fd01" paint-order="fill stroke markers" d=" M 912 128 L 912 65" stroke-linecap="round" stroke-miterlimit="10" stroke-width="3" stroke-dasharray=""/><g><text fill="#ffffff" stroke="none" font-family="sans-serif" font-size="10px" font-style="normal" font-weight="normal" text-decoration="normal" x="903" y="53" text-anchor="start" dominant-baseline="central">+5V</text></g><path fill="none" stroke="#807f7f" paint-order="fill stroke markers" d=" M 1040 272 L 1018 272" stroke-linecap="round" stroke-miterlimit="10" stroke-width="3" stroke-dasharray=""/><path fill="none" stroke="#02fc02" paint-order="fill stroke markers" d=" M 1040 240 L 1018 240" stroke-linecap="round" stroke-miterlimit="10" stroke-width="3" stroke-dasharray=""/><path fill="none" stroke="#807f7f" paint-order="fill stroke markers" d=" M 1018 272 L 1018 267" stroke-linecap="round" stroke-miterlimit="10" stroke-width="3" stroke-dasharray=""/><path fill="none" stroke="#56a956" paint-order="fill stroke markers" d=" M 1018 261 L 1018 256" stroke-linecap="round" stroke-miterlimit="10" stroke-width="3" stroke-dasharray=""/><path fill="none" stroke="#42bd42" paint-order="fill stroke markers" d=" M 1018 256 L 1018 251" stroke-linecap="round" stroke-miterlimit="10" stroke-width="3" stroke-dasharray=""/><path fill="none" stroke="#16e816" paint-order="fill stroke markers" d=" M 1018 245 L 1018 240" stroke-linecap="round" stroke-miterlimit="10" stroke-width="3" stroke-dasharray=""/><path fill="none" stroke="#807f7f" paint-order="fill stroke markers" d=" M 1018 272 L 1018 277" stroke-linecap="round" stroke-miterlimit="10" stroke-width="3" stroke-dasharray=""/><path fill="none" stroke="#02fc02" paint-order="fill stroke markers" d=" M 1018 240 L 1018 235" stroke-linecap="round" stroke-miterlimit="10" stroke-width="3" stroke-dasharray=""/><path fill="none" stroke="#807f7f" paint-order="fill stroke markers" d=" M 1040 272 L 1040 256" stroke-linecap="round" stroke-miterlimit="10" stroke-width="3" stroke-dasharray=""/><path fill="none" stroke="#807f7f" paint-order="fill stroke markers" d=" M 1040 256 L 1018 256" stroke-linecap="round" stroke-miterlimit="10" stroke-width="3" stroke-dasharray=""/><path fill="#807f7f" stroke="none" paint-order="stroke fill markers" d=" M 1018 256 L 1030 261 L 1030 251 Z"/><path fill="none" stroke="#807f7f" paint-order="fill stroke markers" d=" M 912 256 L 1012 256" stroke-linecap="round" stroke-miterlimit="10" stroke-width="3" stroke-dasharray=""/><path fill="none" stroke="#807f7f" paint-order="fill stroke markers" d=" M 1012 248 L 1012 264" stroke-linecap="round" stroke-miterlimit="10" stroke-width="3" stroke-dasharray=""/><path fill="none" stroke="#807f7f" paint-order="fill stroke markers" d=" M 1040 368 L 1040 272" stroke-linecap="round" stroke-miterlimit="10" stroke-width="3" stroke-dasharray=""/><text fill="#ffffff" stroke="none" font-family="sans-serif" font-size="12px" font-style="normal" font-weight="normal" text-decoration="normal" x="1046" y="326" text-anchor="start" dominant-baseline="alphabetic"></text><path fill="none" stroke="#01fd01" paint-order="fill stroke markers" d=" M 1040 128 L 912 128" stroke-linecap="round" stroke-miterlimit="10" stroke-width="3" stroke-dasharray=""/><text fill="#ffffff" stroke="none" font-family="sans-serif" font-size="12px" font-style="normal" font-weight="normal" text-decoration="normal" x="976" y="122" text-anchor="start" dominant-baseline="alphabetic"></text><path fill="none" stroke="#807f7f" paint-order="fill stroke markers" d=" M 912 368 L 1040 368" stroke-linecap="round" stroke-miterlimit="10" stroke-width="3" stroke-dasharray=""/><text fill="#ffffff" stroke="none" font-family="sans-serif" font-size="12px" font-style="normal" font-weight="normal" text-decoration="normal" x="976" y="362" text-anchor="start" dominant-baseline="alphabetic"></text><path fill="none" stroke="#02fc02" paint-order="fill stroke markers" d=" M 1040 240 L 1104 240" stroke-linecap="round" stroke-miterlimit="10" stroke-width="3" stroke-dasharray=""/><text fill="#ffffff" stroke="none" font-family="sans-serif" font-size="12px" font-style="normal" font-weight="normal" text-decoration="normal" x="1072" y="234" text-anchor="start" dominant-baseline="alphabetic"></text><path fill="none" stroke="#01fd01" paint-order="fill stroke markers" d=" M 1040 128 L 1104 128" stroke-linecap="round" stroke-miterlimit="10" stroke-width="3" stroke-dasharray=""/><text fill="#ffffff" stroke="none" font-family="sans-serif" font-size="12px" font-style="normal" font-weight="normal" text-decoration="normal" x="1072" y="122" text-anchor="start" dominant-baseline="alphabetic"></text><path fill="none" stroke="#02fc02" paint-order="fill stroke markers" d=" M 1040 240 L 1040 192" stroke-linecap="round" stroke-miterlimit="10" stroke-width="3" stroke-dasharray=""/><path fill="none" stroke="#01fd01" paint-order="fill stroke markers" d=" M 1040 176 L 1040 128" stroke-linecap="round" stroke-miterlimit="10" stroke-width="3" stroke-dasharray=""/><path fill="#02fc02" stroke="none" paint-order="stroke fill markers" d=" M 1032 192 L 1048 192 L 1040 176 Z"/><path fill="none" stroke="#01fd01" paint-order="fill stroke markers" d=" M 1032 176 L 1048 176" stroke-linecap="round" stroke-miterlimit="10" stroke-width="3" stroke-dasharray=""/><g><text fill="#c0c0c0" stroke="none" font-family="sans-serif" font-size="12px" font-style="normal" font-weight="normal" text-decoration="normal" x="586" y="212" text-anchor="start" dominant-baseline="alphabetic">output pin</text></g><g><text fill="#c0c0c0" stroke="none" font-family="sans-serif" font-size="12px" font-style="normal" font-weight="normal" text-decoration="normal" x="947" y="205" text-anchor="start" dominant-baseline="alphabetic">flyback diode</text></g><g><text fill="#c0c0c0" stroke="none" font-family="sans-serif" font-size="12px" font-style="normal" font-weight="normal" text-decoration="normal" x="959" y="189" text-anchor="start" dominant-baseline="alphabetic">1N5819</text></g><path fill="none" stroke="#807f7f" paint-order="fill stroke markers" d=" M 528 240 L 528 280" stroke-linecap="round" stroke-miterlimit="10" stroke-width="3" stroke-dasharray=""/><path fill="none" stroke="#807f7f" paint-order="fill stroke markers" d=" M 528 312 L 528 352" stroke-linecap="round" stroke-miterlimit="10" stroke-width="3" stroke-dasharray=""/><g transform="matrix(0,1,-1,0,528,280)"><path fill="none" stroke="url(#urtiKgeJRSfv)" paint-order="fill stroke markers" d=" M 0 0 L 2 6 L 6 -6 L 10 6 L 14 -6 L 18 6 L 22 -6 L 26 6 L 30 -6 L 32 0" stroke-linecap="round" stroke-miterlimit="10" stroke-width="3" stroke-dasharray=""/></g><text fill="#ffffff" stroke="none" font-family="sans-serif" font-size="12px" font-style="normal" font-weight="normal" text-decoration="normal" x="538" y="302" text-anchor="start" dominant-baseline="alphabetic">50k</text><path fill="none" stroke="#2cd22c" paint-order="fill stroke markers" d=" M 496 208 L 496 161" stroke-linecap="round" stroke-miterlimit="10" stroke-width="3" stroke-dasharray=""/><g><text fill="#ffffff" stroke="none" font-family="sans-serif" font-size="12px" font-style="normal" font-weight="normal" text-decoration="normal" x="481" y="149" text-anchor="start" dominant-baseline="central">+3.3V</text></g><path fill="none" stroke="#807f7f" paint-order="fill stroke markers" d=" M 592 224 L 560 224" stroke-linecap="round" stroke-miterlimit="10" stroke-width="3" stroke-dasharray=""/><path fill="none" stroke="#807f7f" paint-order="fill stroke markers" d=" M 528 240 L 496 240" stroke-linecap="round" stroke-miterlimit="10" stroke-width="3" stroke-dasharray=""/><path fill="none" stroke="#2cd22c" paint-order="fill stroke markers" d=" M 528 208 L 496 208" stroke-linecap="round" stroke-miterlimit="10" stroke-width="3" stroke-dasharray=""/><path fill="none" stroke="#ffffff" paint-order="fill stroke markers" d=" M 560 224 L 528 240" stroke-linecap="round" stroke-miterlimit="10" stroke-width="3" stroke-dasharray=""/><rect fill="none" stroke="#808080" x="445" y="118" width="198" height="274" stroke-linecap="round" stroke-miterlimit="10" stroke-dasharray="16,6"/><g><text fill="#c0c0c0" stroke="none" font-family="sans-serif" font-size="12px" font-style="normal" font-weight="normal" text-decoration="normal" x="1053" y="270" text-anchor="start" dominant-baseline="alphabetic">IRL540N</text></g><path fill="none" stroke="#807f7f" paint-order="fill stroke markers" d=" M 912 256 L 912 296" stroke-linecap="round" stroke-miterlimit="10" stroke-width="3"/><path fill="none" stroke="#807f7f" paint-order="fill stroke markers" d=" M 912 328 L 912 368" stroke-linecap="round" stroke-miterlimit="10" stroke-width="3"/><g transform="matrix(0,1,-1,0,912,296)"><path fill="none" stroke="url(#aTIJXvkZsTNE)" paint-order="fill stroke markers" d=" M 0 0 L 2 6 L 6 -6 L 10 6 L 14 -6 L 18 6 L 22 -6 L 26 6 L 30 -6 L 32 0" stroke-linecap="round" stroke-miterlimit="10" stroke-width="3"/></g><text fill="#ffffff" stroke="none" font-family="sans-serif" font-size="12px" font-style="normal" font-weight="normal" text-decoration="normal" x="922" y="318" text-anchor="start" dominant-baseline="alphabetic">2.2k</text><path fill="none" stroke="#01fd01" paint-order="fill stroke markers" d=" M 912 224 L 912 128" stroke-linecap="round" stroke-miterlimit="10" stroke-width="3"/><text fill="#ffffff" stroke="none" font-family="sans-serif" font-size="12px" font-style="normal" font-weight="normal" text-decoration="normal" x="918" y="182" text-anchor="start" dominant-baseline="alphabetic"></text><g><text fill="#c0c0c0" stroke="none" font-family="sans-serif" font-size="12px" font-style="normal" font-weight="normal" text-decoration="normal" x="843" y="281" text-anchor="start" dominant-baseline="alphabetic">PC817</text></g><g><text fill="#c0c0c0" stroke="none" font-family="sans-serif" font-size="12px" font-style="normal" font-weight="normal" text-decoration="normal" x="477" y="105" text-anchor="start" dominant-baseline="alphabetic">a device with 3.3V logic</text></g><path fill="none" stroke="#c0c0c0" paint-order="fill stroke markers" d=" M 832 216 L 896 216 L 896 264 L 832 264 Z" stroke-linecap="round" stroke-miterlimit="10" stroke-width="3"/><path fill="none" stroke="#807f7f" paint-order="fill stroke markers" d=" M 816 224 L 848 224" stroke-linecap="round" stroke-miterlimit="10" stroke-width="3"/><path fill="none" stroke="#807f7f" paint-order="fill stroke markers" d=" M 816 256 L 848 256" stroke-linecap="round" stroke-miterlimit="10" stroke-width="3"/><path fill="none" stroke="#01fd01" paint-order="fill stroke markers" d=" M 912 224 L 888 224" stroke-linecap="round" stroke-miterlimit="10" stroke-width="3"/><path fill="none" stroke="#807f7f" paint-order="fill stroke markers" d=" M 912 256 L 888 256" stroke-linecap="round" stroke-miterlimit="10" stroke-width="3"/><path fill="none" stroke="#807f7f" paint-order="fill stroke markers" d=" M 848 224 L 848 232" stroke-linecap="round" stroke-miterlimit="10" stroke-width="3"/><path fill="none" stroke="#807f7f" paint-order="fill stroke markers" d=" M 848 248 L 848 256" stroke-linecap="round" stroke-miterlimit="10" stroke-width="3"/><path fill="#807f7f" stroke="none" paint-order="stroke fill markers" d=" M 856 232 L 840 232 L 848 248 Z"/><path fill="none" stroke="#807f7f" paint-order="fill stroke markers" d=" M 856 248 L 840 248" stroke-linecap="round" stroke-miterlimit="10" stroke-width="3"/><path fill="none" stroke="#01fd01" paint-order="fill stroke markers" d=" M 888 224 L 875 234" stroke-linecap="round" stroke-miterlimit="10" stroke-width="3"/><path fill="none" stroke="#807f7f" paint-order="fill stroke markers" d=" M 888 256 L 875 246" stroke-linecap="round" stroke-miterlimit="10" stroke-width="3"/><path fill="#c0c0c0" stroke="none" paint-order="stroke fill markers" d=" M 888 256 L 884 248 L 879 254 Z"/><path fill="none" stroke="#7a857a" paint-order="fill stroke markers" d=" M 872 240 L 872 240" stroke-linecap="round" stroke-miterlimit="10" stroke-width="3"/><path fill="#7a857a" stroke="none" paint-order="stroke fill markers" d=" M 872 224 L 875 224 L 875 256 L 872 256 Z"/><path fill="#c0c0c0" stroke="none" paint-order="stroke fill markers" d=" M 870 235 L 865 233 L 865 237 Z"/><path fill="none" stroke="#c0c0c0" paint-order="fill stroke markers" d=" M 860 235 L 865 235" stroke-linecap="round" stroke-miterlimit="10"/><path fill="#c0c0c0" stroke="none" paint-order="stroke fill markers" d=" M 870 245 L 865 243 L 865 247 Z"/><path fill="none" stroke="#c0c0c0" paint-order="fill stroke markers" d=" M 860 245 L 865 245" stroke-linecap="round" stroke-miterlimit="10"/><path fill="none" stroke="#807f7f" paint-order="fill stroke markers" d=" M 592 224 L 736 224" stroke-linecap="round" stroke-miterlimit="10" stroke-width="3"/><text fill="#ffffff" stroke="none" font-family="sans-serif" font-size="12px" font-style="normal" font-weight="normal" text-decoration="normal" x="664" y="218" text-anchor="start" dominant-baseline="alphabetic"></text><path fill="none" stroke="#807f7f" paint-order="fill stroke markers" d=" M 736 224 L 760 224" stroke-linecap="round" stroke-miterlimit="10" stroke-width="3"/><path fill="none" stroke="#807f7f" paint-order="fill stroke markers" d=" M 792 224 L 816 224" stroke-linecap="round" stroke-miterlimit="10" stroke-width="3"/><g transform="matrix(1,0,0,1,760,224)"><path fill="none" stroke="url(#GkuRSGuBTmyr)" paint-order="fill stroke markers" d=" M 0 0 L 2 6 L 6 -6 L 10 6 L 14 -6 L 18 6 L 22 -6 L 26 6 L 30 -6 L 32 0" stroke-linecap="round" stroke-miterlimit="10" stroke-width="3"/></g><text fill="#ffffff" stroke="none" font-family="sans-serif" font-size="12px" font-style="normal" font-weight="normal" text-decoration="normal" x="766" y="214" text-anchor="start" dominant-baseline="alphabetic">100</text><path fill="none" stroke="#807f7f" paint-order="fill stroke markers" d=" M 528 352 L 528 432" stroke-linecap="round" stroke-miterlimit="10" stroke-width="3"/><path fill="none" stroke="#807f7f" paint-order="fill stroke markers" d=" M 538 432 L 518 432" stroke-linecap="round" stroke-miterlimit="10" stroke-width="3"/><path fill="none" stroke="#807f7f" paint-order="fill stroke markers" d=" M 534 437 L 522 437" stroke-linecap="round" stroke-miterlimit="10" stroke-width="3"/><path fill="none" stroke="#807f7f" paint-order="fill stroke markers" d=" M 530 442 L 526 442" stroke-linecap="round" stroke-miterlimit="10" stroke-width="3"/><path fill="none" stroke="#807f7f" paint-order="fill stroke markers" d=" M 528 352 L 576 352" stroke-linecap="round" stroke-miterlimit="10" stroke-width="3"/><text fill="#ffffff" stroke="none" font-family="sans-serif" font-size="12px" font-style="normal" font-weight="normal" text-decoration="normal" x="552" y="346" text-anchor="start" dominant-baseline="alphabetic"></text><path fill="none" stroke="#807f7f" paint-order="fill stroke markers" d=" M 576 352 L 576 256" stroke-linecap="round" stroke-miterlimit="10" stroke-width="3"/><text fill="#ffffff" stroke="none" font-family="sans-serif" font-size="12px" font-style="normal" font-weight="normal" text-decoration="normal" x="582" y="310" text-anchor="start" dominant-baseline="alphabetic"></text><path fill="none" stroke="#807f7f" paint-order="fill stroke markers" d=" M 672 256 L 816 256" stroke-linecap="round" stroke-miterlimit="10" stroke-width="3"/><text fill="#ffffff" stroke="none" font-family="sans-serif" font-size="12px" font-style="normal" font-weight="normal" text-decoration="normal" x="744" y="250" text-anchor="start" dominant-baseline="alphabetic"></text><path fill="none" stroke="#807f7f" paint-order="fill stroke markers" d=" M 576 256 L 672 256" stroke-linecap="round" stroke-miterlimit="10" stroke-width="3"/><text fill="#ffffff" stroke="none" font-family="sans-serif" font-size="12px" font-style="normal" font-weight="normal" text-decoration="normal" x="624" y="250" text-anchor="start" dominant-baseline="alphabetic"></text><g><text fill="#c0c0c0" stroke="none" font-family="sans-serif" font-size="12px" font-style="normal" font-weight="normal" text-decoration="normal" x="617" y="249" text-anchor="start" dominant-baseline="alphabetic">gnd</text></g><path fill="none" stroke="#01fd01" paint-order="fill stroke markers" d=" M 1104 172 L 1104 128" stroke-linecap="round" stroke-miterlimit="10" stroke-width="3"/><path fill="none" stroke="#02fc02" paint-order="fill stroke markers" d=" M 1104 196 L 1104 240" stroke-linecap="round" stroke-miterlimit="10" stroke-width="3"/><path fill="none" stroke="#c0c0c0" paint-order="fill stroke markers" d=" M 1072 172 L 1072 196" stroke-linecap="round" stroke-miterlimit="10" stroke-width="3"/><path fill="none" stroke="#c0c0c0" paint-order="fill stroke markers" d=" M 1072 196 L 1136 196" stroke-linecap="round" stroke-miterlimit="10" stroke-width="3"/><path fill="none" stroke="#c0c0c0" paint-order="fill stroke markers" d=" M 1136 196 L 1136 172" stroke-linecap="round" stroke-miterlimit="10" stroke-width="3"/><path fill="none" stroke="#c0c0c0" paint-order="fill stroke markers" d=" M 1136 172 L 1072 172" stroke-linecap="round" stroke-miterlimit="10" stroke-width="3"/><text fill="#ffffff" stroke="none" font-family="sans-serif" font-size="12px" font-style="normal" font-weight="normal" text-decoration="normal" x="1146" y="188" text-anchor="start" dominant-baseline="alphabetic">mini solenoid 1.1A 5V 2.3mH 4Ω</text><rect fill="none" stroke="#808080" x="736" y="16" width="620" height="472" stroke-linecap="round" stroke-miterlimit="10" stroke-dasharray="16,6"/><path fill="#ffffff" stroke="none" paint-order="stroke fill markers" d=" M 915 368 A 3 3 0 1 1 914.9999999999577 367.99998407846124 Z"/><path fill="#ffffff" stroke="none" paint-order="stroke fill markers" d=" M 915 128 A 3 3 0 1 1 914.9999999999577 127.99998407846124 Z"/><path fill="#ffffff" stroke="none" paint-order="stroke fill markers" d=" M 915 256 A 3 3 0 1 1 914.9999999999577 255.99998407846124 Z"/><path fill="#ffffff" stroke="none" paint-order="stroke fill markers" d=" M 1043 240 A 3 3 0 1 1 1042.9999999999577 239.99998407846124 Z"/><path fill="#ffffff" stroke="none" paint-order="stroke fill markers" d=" M 1043 128 A 3 3 0 1 1 1042.9999999999577 127.99998407846124 Z"/><path fill="#ffffff" stroke="none" paint-order="stroke fill markers" d=" M 531 240 A 3 3 0 1 1 530.9999999999577 239.99998407846124 Z"/><path fill="#ffffff" stroke="none" paint-order="stroke fill markers" d=" M 531 352 A 3 3 0 1 1 530.9999999999577 351.99998407846124 Z"/><path fill="#ffffff" stroke="none" paint-order="stroke fill markers" d=" M 499 240 A 3 3 0 1 1 498.99999999995777 239.99998407846124 Z"/></g></g></svg>